<?xml version='1.0' encoding='utf-8'?>
<svg xmlns="http://www.w3.org/2000/svg" id="Layer_1" data-name="Layer 1" viewBox="0 0 800 1000"><defs><style>.cls-1,.cls-3{fill:#fff;}.cls-2,.cls-4{fill:none;}.cls-2,.cls-3,.cls-4,.cls-9{stroke:#000;stroke-width:10px;}.cls-2,.cls-3{stroke-linecap:round;stroke-linejoin:round;}.cls-4,.cls-9{stroke-miterlimit:10;}.cls-5{font-size:90px;font-family:Exo-Medium, Exo;}.cls-6{letter-spacing:-0.02em;}.cls-7{letter-spacing:-0.02em;}.cls-8{letter-spacing:0em;}.cls-9{fill:#b3b3b3;}.cls-10{fill:#f2f2f2;}</style></defs><title>Portfolio</title><rect class="cls-1" x="5" y="5" width="790" height="990" rx="45" ry="45"/><path d="M950,110a40,40,0,0,1,40,40v900a40,40,0,0,1-40,40H250a40,40,0,0,1-40-40V150a40,40,0,0,1,40-40H950m0-10H250a50.15,50.15,0,0,0-50,50v900a50.15,50.15,0,0,0,50,50H950a50.15,50.15,0,0,0,50-50V150a50.15,50.15,0,0,0-50-50Z" transform="translate(-200 -100)"/><line class="cls-2" x1="290" y1="200" x2="740" y2="200"/><rect class="cls-3" x="50" y="50" width="200" height="250" rx="15" ry="15"/><line class="cls-2" x1="290" y1="250" x2="740" y2="250"/><line class="cls-2" x1="250" y1="350" x2="250" y2="930"/><line class="cls-2" x1="290" y1="434" x2="740" y2="434"/><line class="cls-2" x1="290" y1="384" x2="740" y2="384"/><line class="cls-2" x1="290" y1="484" x2="740" y2="484"/><line class="cls-2" x1="290" y1="634" x2="740" y2="634"/><line class="cls-2" x1="290" y1="584" x2="740" y2="584"/><line class="cls-2" x1="290" y1="684" x2="740" y2="684"/><line class="cls-2" x1="290" y1="834" x2="740" y2="834"/><line class="cls-2" x1="290" y1="784" x2="740" y2="784"/><line class="cls-2" x1="290" y1="884" x2="740" y2="884"/><line class="cls-4" x1="50" y1="384" x2="200" y2="384"/><line class="cls-4" x1="50" y1="584" x2="200" y2="584"/><line class="cls-4" x1="50" y1="784" x2="200" y2="784"/><text class="cls-5" transform="translate(286.77 134.33)"><tspan class="cls-6">P</tspan><tspan x="50.94" y="0">OR</tspan><tspan class="cls-7" x="165.24" y="0">TF</tspan><tspan class="cls-8" x="265.05" y="0">OLIO</tspan></text><rect class="cls-9" x="50" y="175" width="200" height="125" rx="15" ry="15"/><path class="cls-10" d="M350,289a45,45,0,1,1,45-45A45.05,45.05,0,0,1,350,289Z" transform="translate(-200 -100)"/><path d="M350,204a40,40,0,1,1-40,40,40,40,0,0,1,40-40m0-10a50,50,0,1,0,50,50,50,50,0,0,0-50-50Z" transform="translate(-200 -100)"/><line class="cls-2" x1="90" y1="220" x2="90" y2="300"/><line class="cls-2" x1="210" y1="220" x2="210" y2="300"/></svg>